<mxfile host="app.diagrams.net" modified="2023-07-03T03:26:56.362Z" agent="Mozilla/5.0 (Windows NT 10.0; Win64; x64) AppleWebKit/537.36 (KHTML, like Gecko) Chrome/114.0.0.0 Safari/537.36" version="21.5.2" etag="ELWHjwk1XYrUko_s7kV3" type="github">
  <diagram name="Page-1" id="bbIC9h5jc_McdHvM_ISI">
    <mxGraphModel>
      <root>
        <mxCell id="0" />
        <mxCell id="1" parent="0" />
      </root>
    </mxGraphModel>
  </diagram>
</mxfile>
